# xmcd CD database file
#
# Track frame offsets:
#	150
#	10863
#	20276
#	32207
#	41493
#	53653
#	63593
#	74228
#	84196
#	97138
#	110177
#	122819
#	134445
#	145485
#	157803
#	169860
#
# Disc length: 2488 seconds
#
# Revision: 0
# Processed by: cddbd v1.5.2PL0 Copyright (c) Steve Scherf et al.
# Submitted via: ACXtractor (MTCDDB.DLL V2003.07.15)
#
DISCID=e409b610
DTITLE=Wayne Horsburgh - Songs of the Islands Vol 1
DYEAR=2005
DGENRE=Country
TTITLE0=In the Middle of an Island
TTITLE1=Blue Hawaii
TTITLE2=To You Sweatheart
TTITLE3=Don't Sing Aloha When I Go Back
TTITLE4=Sweet Leilani
TTITLE5=Love Song of Kalua
TTITLE6=Hawaiian Wedding Song
TTITLE7=Hawaiian Cowboy
TTITLE8=Love Letters in the Sand
TTITLE9=Red Sails in the Sunset
TTITLE10=Strangers on the Shore
TTITLE11=Pearly Shells
TTITLE12=Echo Island
TTITLE13=Harbour Lights
TTITLE14=Pokarekare Ana
TTITLE15=Now is the Hour
EXTD=ID3G:   2 YEAR: 2005
EXTT0=
EXTT1=
EXTT2=
EXTT3=
EXTT4=
EXTT5=
EXTT6=
EXTT7=
EXTT8=
EXTT9=
EXTT10=
EXTT11=
EXTT12=
EXTT13=
EXTT14=
EXTT15=
PLAYORDER=
